<svg width="132" height="177" viewBox="0 0 132 177" fill="none" xmlns="http://www.w3.org/2000/svg">
    <path fill="#F7F7F7" d="M0 0h132v177H0z"/>
    <path d="M50.4 91c-6.466 2.568-12.623 6.859-16.859 12.324-4.235 5.466-6.536 10.958-6.541 17.873A7.8 7.8 0 0 0 34.8 129h62.4a7.805 7.805 0 0 0 7.8-7.803c-.005-6.915-2.306-12.407-6.541-17.873C94.223 97.859 88.066 93.568 81.6 91" stroke="#E4E4E4" stroke-width="6" stroke-miterlimit="10"/>
    <path d="M46 67c0-11.046 8.954-20 20-20s20 8.954 20 20v9c0 11.046-8.954 20-20 20s-20-8.954-20-20v-9z" stroke="#E4E4E4" stroke-width="6"/>
</svg>
