<svg width="108" height="28" viewBox="0 0 108 28" fill="none" xmlns="http://www.w3.org/2000/svg">
    <path d="M15.001 11.454h-1.93v-1.93a.343.343 0 0 0-.342-.344H11.02a.343.343 0 0 0-.343.343v1.93h-1.93a.342.342 0 0 0-.343.343v1.71a.343.343 0 0 0 .343.342h1.93v1.93a.343.343 0 0 0 .343.344h1.709a.342.342 0 0 0 .342-.343v-1.93H15a.343.343 0 0 0 .344-.344v-1.708a.343.343 0 0 0-.344-.343z" fill="#4AC6FF"/>
    <path d="M18.221 19.79a3.71 3.71 0 0 0-3.952-.777l-.023.009a6.822 6.822 0 1 1-.055-12.76l.023.009a3.659 3.659 0 0 0 4.046-1.014l.121-.138.002-.003c0-.001 0-.002-.002-.003a10.022 10.022 0 1 0-2.999 16.885 10.113 10.113 0 0 0 2.101-1.107c1.021-.647 1.335-.528 1.335-.528l-.597-.574z" fill="#4AC6FF"/>
    <path d="M30.288 8.247a10.006 10.006 0 0 0-12.645-1.241c-1.044.61-1.349.481-1.349.481l.571.592a3.657 3.657 0 0 0 3.914.873l.022-.009a6.818 6.818 0 1 1-.055 12.76l-.022-.009a3.705 3.705 0 0 0-4.115.943l-.118.131a10.016 10.016 0 0 0 13.797-14.52z" fill="#fff"/>
    <path d="M23.434 19.143a4.161 4.161 0 0 1-3.625-2.13.346.346 0 0 1 .162-.481l.586-.262a.343.343 0 0 1 .437.145 2.827 2.827 0 0 0 4.88 0 .344.344 0 0 1 .436-.145l.585.262a.346.346 0 0 1 .162.482 4.162 4.162 0 0 1-3.623 2.129zM20.928 14.592a.928.928 0 1 0 0-1.856.928.928 0 0 0 0 1.856zM25.937 14.592a.928.928 0 1 0 0-1.856.928.928 0 0 0 0 1.856zM100.053 7.571H89.759a.544.544 0 0 0-.544.544v.916a1.245 1.245 0 0 0 1.244 1.245h8.894a1.246 1.246 0 0 0 1.244-1.245v-.917a.543.543 0 0 0-.544-.543zM68.078 22.667h1.293a.544.544 0 0 0 .544-.544V7.453a.544.544 0 0 0-.544-.545h-1.289a1.245 1.245 0 0 0-1.244 1.245v13.272a1.245 1.245 0 0 0 1.24 1.242zM58.262 10.276h4.366V7.571h-6.9a.544.544 0 0 0-.544.545v9.562l3.078.281v-7.683z" fill="#fff"/>
    <path d="M55.184 17.581a25.86 25.86 0 0 0 12.039-2.296v2.923a27.372 27.372 0 0 1-11.504 2.095.55.55 0 0 1-.535-.544V17.58zM48.608 14.627h1.746v6.797a1.245 1.245 0 0 0 1.245 1.244h1.289a.545.545 0 0 0 .544-.544V7.454a.544.544 0 0 0-.544-.544h-1.29a1.245 1.245 0 0 0-1.244 1.244v3.732h-1.75l.004 2.741zM86.312 6.908h-1.288a1.245 1.245 0 0 0-1.245 1.244v13.273a1.244 1.244 0 0 0 1.245 1.245h1.288a.544.544 0 0 0 .544-.545V14.85h1.83a.545.545 0 0 0 .545-.545v-.955a1.245 1.245 0 0 0-1.245-1.245H86.86V7.452a.545.545 0 0 0-.548-.544z" fill="#fff"/>
    <path d="M43.106 7.416a5.827 5.827 0 1 0 0 11.654 5.827 5.827 0 0 0 0-11.654zm0 8.855a3.028 3.028 0 1 1 0-6.056 3.028 3.028 0 0 1 0 6.056zM76.921 7.416a5.827 5.827 0 1 0 0 11.655 5.827 5.827 0 0 0 0-11.655zm0 8.855a3.028 3.028 0 1 1 0-6.055 3.028 3.028 0 0 1 0 6.055zM104.283 12.29V7.452a.544.544 0 0 0-.544-.544h-1.289a1.246 1.246 0 0 0-1.244 1.244v13.273a1.246 1.246 0 0 0 1.244 1.245h1.289a.543.543 0 0 0 .544-.545v-7.089h1.829a.547.547 0 0 0 .544-.544v-.953a1.243 1.243 0 0 0-1.245-1.245l-1.128-.004z" fill="#fff"/>
    <path d="M90.467 17.745c3.725-.002 7.407-.799 10.799-2.339v2.924a27.37 27.37 0 0 1-11.505 2.095.55.55 0 0 1-.534-.544v-.89a1.243 1.243 0 0 1 1.24-1.246z" fill="#fff"/>
    <path d="M98.907 9.821h-2.801v8.613h2.801V9.821zM93.77 9.821h-2.802v8.724h2.801V9.82zM64.526 7.571h-7.48a.544.544 0 0 0-.545.544v.916a1.245 1.245 0 0 0 1.245 1.245h6.078A1.245 1.245 0 0 0 65.07 9.03v-.917a.544.544 0 0 0-.543-.543z" fill="#fff"/>
</svg>
