<svg width="16" height="16" viewBox="0 0 16 16" fill="none" xmlns="http://www.w3.org/2000/svg">
    <path d="m3.5 11.5 5.979 2.917a.693.693 0 0 0 1.021-.61V2.193a.692.692 0 0 0-1.021-.61L3.5 4.5v7z" stroke="#999" stroke-miterlimit="10"/>
    <path d="M3.5 4.5H1a.5.5 0 0 0-.5.5v6a.5.5 0 0 0 .5.5h2.5" stroke="#999"/>
    <path d="M12.5 5.001c.39-.012.777.056 1.14.201a2.9 2.9 0 0 1 .976.644c.28.28.502.614.654.984a3.081 3.081 0 0 1 0 2.34c-.152.37-.375.704-.654.984a2.9 2.9 0 0 1-.975.644 2.832 2.832 0 0 1-1.141.2" stroke="#999" stroke-miterlimit="10"/>
</svg>
