<svg width="14" height="14" viewBox="0 0 14 14" fill="none" xmlns="http://www.w3.org/2000/svg">
    <path d="M7 4.754A2.114 2.114 0 1 0 7 8.98a2.114 2.114 0 0 0 0-4.227z" fill="#BFBFBF"/>
    <path d="M13.854 6.692a12.545 12.545 0 0 0-1.993-1.841 10.504 10.504 0 0 0-2.168-1.268 6.508 6.508 0 0 0-5.386 0c-.77.334-1.499.76-2.168 1.268A12.548 12.548 0 0 0 .146 6.692L0 6.867l.146.175A12.554 12.554 0 0 0 2.14 8.884c.67.508 1.397.933 2.168 1.268a6.509 6.509 0 0 0 5.386 0c.77-.335 1.498-.76 2.168-1.268a12.549 12.549 0 0 0 1.993-1.842L14 6.867l-.146-.175zM7 9.763a2.897 2.897 0 1 1 0-5.796 2.897 2.897 0 0 1 0 5.798v-.002z" fill="#BFBFBF"/>
</svg>
