<svg width="80" height="80" viewBox="0 0 80 80" fill="none" xmlns="http://www.w3.org/2000/svg">
    <path d="M75 39V18a4 4 0 0 0-4-4H9a4 4 0 0 0-4 4v44a4 4 0 0 0 4 4h35.5M6 26h68M11 20h8" stroke="#858585" stroke-width="2"/>
    <circle cx="63" cy="56" r="16" stroke="#4AC6FF" stroke-width="2"/>
    <path d="M57.887 52.538c.164-1.454.698-2.574 1.6-3.362.903-.795 2.07-1.193 3.502-1.193 1.476 0 2.686.409 3.631 1.225.953.81 1.429 1.83 1.429 3.062a4.09 4.09 0 0 1-.42 1.793c-.271.58-.923 1.325-1.954 2.235-.788.702-1.286 1.257-1.493 1.665-.2.4-.312 1.124-.333 2.17H62c0-.83.029-1.436.086-1.816.064-.386.19-.762.376-1.127.193-.366.44-.71.741-1.032.308-.322.738-.723 1.29-1.203.701-.623 1.138-1.11 1.31-1.46.179-.359.268-.72.268-1.086 0-.752-.297-1.41-.891-1.976-.595-.573-1.318-.86-2.17-.86-1.733 0-2.779 1.06-3.137 3.18l-1.987-.215zM64.074 64h-2.202v-2.202h2.202V64z" fill="#4AC6FF"/>
</svg>
