<svg width="56" height="56" viewBox="0 0 56 56" fill="none" xmlns="http://www.w3.org/2000/svg">
    <path d="M20.578 50.08A23.923 23.923 0 0 0 30 52c13.255 0 24-10.745 24-24S43.255 4 30 4a23.888 23.888 0 0 0-12.464 3.486C14.773 9.168 11.415 9.971 8.4 8.8" stroke="#858585" stroke-width="2"/>
    <path d="M38.5 30c-.938 2.5-3.876 5-7.5 5s-6.563-2.5-7.5-5" stroke="#858585" stroke-width="2"/>
    <circle r="2" transform="matrix(1 0 0 -1 37 23)" fill="#858585"/>
    <circle r="2" transform="matrix(1 0 0 -1 25 23)" fill="#858585"/>
    <path d="M10 33.5V37a8 8 0 0 0 8 8h2.5" stroke="#4AC6FF" stroke-width="2"/>
    <rect x="18" y="42" width="11" height="6" rx="3" fill="#4AC6FF"/>
    <path d="M1 27.5C1 36 5.477 38 11 38V20c0-1.657-1.356-3.054-2.986-2.757C3.95 17.983 1 20.6 1 27.5z" fill="#4AC6FF"/>
</svg>
