<svg width="212" height="46" viewBox="0 0 212 46" fill="none" xmlns="http://www.w3.org/2000/svg">
    <path d="M26.739 17.815h-3.895V13.92a.693.693 0 0 0-.691-.693h-3.447a.693.693 0 0 0-.692.693v3.895h-3.896a.691.691 0 0 0-.692.691v3.448a.692.692 0 0 0 .692.693h3.896v3.895a.693.693 0 0 0 .692.693h3.447a.691.691 0 0 0 .69-.693v-3.895h3.896a.692.692 0 0 0 .692-.692v-3.447a.692.692 0 0 0-.692-.693z" fill="#4AC6FF"/>
    <path d="M33.236 34.635a7.488 7.488 0 0 0-7.975-1.566l-.046.017a13.766 13.766 0 1 1-.111-25.746l.046.017a7.383 7.383 0 0 0 8.166-2.046l.244-.279a.01.01 0 0 0 .002-.006.01.01 0 0 0-.002-.006 20.224 20.224 0 1 0-6.052 34.071 20.409 20.409 0 0 0 4.239-2.233c2.06-1.306 2.694-1.066 2.694-1.066l-1.205-1.157z" fill="#4AC6FF"/>
    <path d="M57.584 11.345a20.19 20.19 0 0 0-25.513-2.506c-2.108 1.232-2.723.972-2.723.972l1.152 1.195a7.38 7.38 0 0 0 7.897 1.76l.046-.017a13.76 13.76 0 1 1-.111 25.746l-.046-.017a7.477 7.477 0 0 0-8.302 1.902l-.24.266a20.211 20.211 0 0 0 27.84-29.301z" fill="#0E1E96"/>
    <path d="M43.754 33.33a8.4 8.4 0 0 1-7.313-4.296.697.697 0 0 1 .326-.973l1.182-.528a.692.692 0 0 1 .881.292 5.705 5.705 0 0 0 9.848 0 .694.694 0 0 1 .88-.292l1.181.528a.696.696 0 0 1 .327.973 8.399 8.399 0 0 1-7.312 4.296zM38.698 24.149a1.873 1.873 0 1 0 0-3.746 1.873 1.873 0 0 0 0 3.746zM48.806 24.149a1.873 1.873 0 1 0 0-3.747 1.873 1.873 0 0 0 0 3.747zM198.361 9.98h-20.772a1.1 1.1 0 0 0-1.098 1.099v1.848a2.511 2.511 0 0 0 2.511 2.511h17.946a2.512 2.512 0 0 0 2.512-2.511v-1.851a1.099 1.099 0 0 0-1.099-1.095zM133.841 40.44h2.608a1.1 1.1 0 0 0 1.098-1.098V9.74a1.097 1.097 0 0 0-1.098-1.098h-2.6a2.512 2.512 0 0 0-2.512 2.512v26.781a2.514 2.514 0 0 0 2.504 2.506zM114.033 15.437h8.811V9.98h-13.923a1.098 1.098 0 0 0-1.099 1.099v19.295l6.211.567V15.437z" fill="#0E1E96"/>
    <path d="M107.822 30.178a52.181 52.181 0 0 0 24.292-4.634v5.899a55.234 55.234 0 0 1-23.213 4.228 1.11 1.11 0 0 1-1.079-1.099v-4.394zM94.552 24.218h3.524V37.93a2.512 2.512 0 0 0 2.512 2.512h2.6a1.098 1.098 0 0 0 1.099-1.098V9.743a1.098 1.098 0 0 0-1.099-1.098h-2.6a2.512 2.512 0 0 0-2.512 2.511v7.53h-3.53l.006 5.532zM170.634 8.641h-2.601a2.512 2.512 0 0 0-2.512 2.512v26.782a2.512 2.512 0 0 0 2.512 2.511h2.601a1.097 1.097 0 0 0 1.098-1.098v-14.68h3.691a1.104 1.104 0 0 0 1.016-.68c.055-.133.084-.276.084-.42V21.64a2.512 2.512 0 0 0-2.512-2.512h-2.273v-9.39a1.09 1.09 0 0 0-.324-.778 1.09 1.09 0 0 0-.78-.32z" fill="#0E1E96"/>
    <path d="M83.45 9.666a11.758 11.758 0 1 0 0 23.515 11.758 11.758 0 0 0 0-23.515zm0 17.869a6.111 6.111 0 1 1 0-12.222 6.111 6.111 0 0 1 0 12.222zM151.685 9.666a11.759 11.759 0 1 0 0 23.517 11.759 11.759 0 0 0 0-23.517zm0 17.869a6.11 6.11 0 1 1 0-12.221 6.11 6.11 0 0 1 0 12.22zM206.897 19.501V9.74a1.098 1.098 0 0 0-1.098-1.099h-2.601a2.512 2.512 0 0 0-2.511 2.512v26.782a2.511 2.511 0 0 0 2.511 2.511h2.601a1.097 1.097 0 0 0 1.098-1.098V25.043h3.689a1.1 1.1 0 0 0 1.098-1.098v-1.922a2.511 2.511 0 0 0-2.511-2.512l-2.276-.01z" fill="#0E1E96"/>
    <path d="M179.018 30.51a52.784 52.784 0 0 0 21.79-4.72v5.899a55.223 55.223 0 0 1-23.214 4.228 1.106 1.106 0 0 1-1.078-1.098v-1.796a2.505 2.505 0 0 1 2.502-2.513z" fill="#0E1E96"/>
    <path d="M196.049 14.52h-5.653v17.379h5.653v-17.38zM185.681 14.52h-5.653v17.603h5.653V14.52zM126.673 9.98h-15.096a1.097 1.097 0 0 0-1.098 1.099v1.848a2.512 2.512 0 0 0 2.512 2.511h12.265a2.51 2.51 0 0 0 2.512-2.511v-1.851a1.099 1.099 0 0 0-1.095-1.095z" fill="#0E1E96"/>
</svg>
