<svg width="16" height="16" viewBox="0 0 16 16" fill="none" xmlns="http://www.w3.org/2000/svg">
    <path d="M2.5.5h11a2 2 0 0 1 2 2v8a2 2 0 0 1-2 2H7.667a.5.5 0 0 0-.3.1L4.3 14.9a.5.5 0 0 1-.8-.4V13a.5.5 0 0 0-.5-.5h-.5a2 2 0 0 1-2-2v-8a2 2 0 0 1 2-2z" stroke="#999"/>
    <path d="M7.933 3.392a2.5 2.5 0 0 1 .776.112c.23.07.424.17.584.304.16.128.283.283.368.464.086.181.128.381.128.6v.088c0 .128-.016.25-.048.368a1.135 1.135 0 0 1-.152.344c-.069.117-.168.243-.296.376a7.687 7.687 0 0 1-.464.456c-.117.107-.21.2-.28.28-.069.075-.122.147-.16.216a.565.565 0 0 0-.072.2c-.01.064-.016.139-.016.224a.336.336 0 0 1-.144.288.512.512 0 0 1-.32.104.606.606 0 0 1-.344-.096c-.096-.07-.144-.176-.144-.32 0-.139.008-.264.024-.376.016-.112.046-.219.088-.32a1.34 1.34 0 0 1 .2-.312c.091-.107.208-.224.352-.352a8.07 8.07 0 0 0 .392-.36c.102-.101.18-.192.232-.272a.716.716 0 0 0 .104-.216.995.995 0 0 0 .024-.224v-.04a.54.54 0 0 0-.2-.44.648.648 0 0 0-.264-.136 1.225 1.225 0 0 0-.4-.056c-.213 0-.4.032-.56.096-.16.064-.312.147-.456.248a.406.406 0 0 1-.32.08.48.48 0 0 1-.264-.192.509.509 0 0 1-.112-.32.388.388 0 0 1 .168-.304c.198-.155.424-.277.68-.368.262-.096.56-.144.896-.144zm-.104 4.96c.171 0 .315.059.432.176a.587.587 0 0 1 .176.432c0 .17-.058.315-.176.432a.587.587 0 0 1-.432.176.587.587 0 0 1-.432-.176.587.587 0 0 1-.176-.432c0-.17.06-.315.176-.432a.587.587 0 0 1 .432-.176z" fill="#999"/>
</svg>
