<svg width="32" height="32" viewBox="0 0 32 32" fill="none" xmlns="http://www.w3.org/2000/svg">
    <path d="M19.026 22.5a3.031 3.031 0 0 1-3.033 3.033 3.033 3.033 0 0 1-3.02-3.033M23.225 15.766a3.72 3.72 0 0 0 .36 1.969 3.936 3.936 0 0 0 1.342 1.538.76.76 0 0 1 .276.275c.065.114.098.24.095.37v1.29c0 .21-.087.412-.243.56a.854.854 0 0 1-.588.232H7.831a.854.854 0 0 1-.588-.232.773.773 0 0 1-.244-.56v-1.29a.725.725 0 0 1 .092-.367.769.769 0 0 1 .266-.278A3.936 3.936 0 0 0 8.7 17.735a3.72 3.72 0 0 0 .36-1.97v-3.007c.004-1.791.753-3.508 2.084-4.775C12.475 6.716 14.28 6.003 16.162 6c1.885 0 3.692.712 5.026 1.979 1.334 1.267 2.085 2.986 2.088 4.779l-.05 3.008z" stroke="#fff" stroke-width="2" stroke-linejoin="round"/>
</svg>
