<svg width="64" height="64" viewBox="0 0 64 64" fill="none" xmlns="http://www.w3.org/2000/svg">
    <circle cx="32" cy="32" r="31" stroke="#858585" stroke-width="2"/>
    <path d="M36 42a3.994 3.994 0 0 1-2.474 3.696A4.016 4.016 0 0 1 31.99 46a4.013 4.013 0 0 1-2.823-1.178A3.996 3.996 0 0 1 28 42M42.828 31.648a5.484 5.484 0 0 0 .551 2.954 5.94 5.94 0 0 0 2.053 2.307c.177.101.322.244.421.413.1.17.15.361.147.555v1.936c0 .315-.134.617-.373.84a1.32 1.32 0 0 1-.9.347H19.273a1.32 1.32 0 0 1-.9-.348 1.148 1.148 0 0 1-.373-.84v-1.935c-.004-.192.045-.381.14-.55.096-.17.237-.313.408-.418a5.94 5.94 0 0 0 2.053-2.307 5.484 5.484 0 0 0 .552-2.954v-4.51c.005-2.688 1.151-5.264 3.188-7.164 2.037-1.9 4.798-2.97 7.679-2.974 2.883 0 5.65 1.067 7.69 2.968 2.042 1.9 3.19 4.479 3.196 7.17l-.078 4.51z" stroke="#0793EA" stroke-width="2" stroke-linejoin="round"/>
</svg>
