<svg width="14" height="14" viewBox="0 0 14 14" fill="none" xmlns="http://www.w3.org/2000/svg">
    <path d="M7.573 4.874A2.107 2.107 0 0 0 4.967 7.48l2.606-2.606zM6.426 8.938a2.108 2.108 0 0 0 2.606-2.605L6.426 8.938zM10.77 2.379l-8.298 8.297a.536.536 0 0 0 .758.758l8.297-8.297a.536.536 0 1 0-.757-.758z" fill="#BFBFBF"/>
    <path d="M11.86 4.89a11.731 11.731 0 0 0-.822-.563L9.643 5.72a2.896 2.896 0 0 1-3.827 3.828l-.877.877c.664.224 1.36.341 2.061.347a6.906 6.906 0 0 0 2.693-.583c.77-.335 1.498-.76 2.168-1.268a12.547 12.547 0 0 0 1.992-1.841L14 6.904l-.147-.175a12.547 12.547 0 0 0-1.992-1.839zM2.14 8.923c.272.204.546.391.822.563L4.357 8.09a2.897 2.897 0 0 1 3.827-3.827l.877-.878A6.6 6.6 0 0 0 7 3.04a6.901 6.901 0 0 0-2.693.584c-.77.334-1.499.76-2.168 1.267A12.556 12.556 0 0 0 .147 6.731L0 6.907l.147.175a12.557 12.557 0 0 0 1.992 1.84z" fill="#BFBFBF"/>
</svg>
