<svg width="56" height="56" viewBox="0 0 56 56" fill="none" xmlns="http://www.w3.org/2000/svg">
    <circle cx="28" cy="28" r="28" fill="#fff"/>
    <path fill-rule="evenodd" clip-rule="evenodd" d="m37.207 19.707.707-.707-1.414-1.414-.707.707-20 20-.707.707 1.414 1.414.707-.707L20.914 36H30a4 4 0 0 0 4-4v-8c0-.334-.04-.658-.118-.968l3.325-3.325zM30 20a4 4 0 0 1 1.126.16L16.837 34.45A3.983 3.983 0 0 1 16 32v-8a4 4 0 0 1 4-4h10zm6.521 4.989a1 1 0 0 0-.52.877v4.268a1 1 0 0 0 .52.878l4 2.181a1 1 0 0 0 1.48-.877v-8.631a1 1 0 0 0-1.48-.878l-4 2.182z" fill="#000"/>
</svg>
