<svg width="56" height="56" viewBox="0 0 56 56" fill="none" xmlns="http://www.w3.org/2000/svg">
    <circle cx="28" cy="28" r="28" fill="#fff"/>
    <path fill-rule="evenodd" clip-rule="evenodd" d="M28 15a5.995 5.995 0 0 1 5.041 2.745L22.21 28.577A6.006 6.006 0 0 1 22 27v-6a6 6 0 0 1 6-6zm-8 12c0 1.09.223 2.159.643 3.143l-1.5 1.5A10 10 0 0 1 18 27v-1h2v1zm1.672 7.743-2.965 2.964-.707.707L16.586 37l.707-.707 20-20 .707-.707L39.414 17l-.707.707L34 22.414V27a6 6 0 0 1-9.476 4.89l-1.43 1.43A8 8 0 0 0 36 27v-1h2v1a10 10 0 0 1-9 9.95V39h4v2H23v-2h4v-2.05a10 10 0 0 1-5.328-2.207z" fill="#000"/>
</svg>
