<svg width="16" height="16" viewBox="0 0 16 16" fill="none" xmlns="http://www.w3.org/2000/svg">
    <path fill-rule="evenodd" clip-rule="evenodd" d="m2.276.281-.589.59a5.761 5.761 0 0 0-.535 7.53l.87 1.16c.286.38.583.75.892 1.111l2.225-2.225a10.842 10.842 0 0 1-.92-1.516.943.943 0 0 1 .177-1.088l1.721-1.721a.96.96 0 0 0 0-1.358L3.634.281a.96.96 0 0 0-1.358 0zM6.46 9.954l-2.178 2.178c.678.66 1.399 1.277 2.157 1.845l1.16.87a5.761 5.761 0 0 0 7.53-.534l.59-.59a.96.96 0 0 0 0-1.357l-2.483-2.483a.96.96 0 0 0-1.358 0l-1.721 1.721a.943.943 0 0 1-1.088.177A10.844 10.844 0 0 1 6.46 9.954z" fill="#fff"/>
    <path d="m12.5 3.5-12 12" stroke="#fff"/>
</svg>
